<svg xmlns="http://www.w3.org/2000/svg" viewBox="0 0 300 300" width="300" height="300">
  <rect width="300" height="300" rx="52" fill="#080f09" stroke="#3aff6a" stroke-width="2.5"/>

  <line x1="0" y1="56"  x2="300" y2="56"  stroke="#3aff6a" stroke-width="0.6" opacity="0.12"/>
  <line x1="0" y1="68"  x2="300" y2="68"  stroke="#3aff6a" stroke-width="0.6" opacity="0.12"/>
  <line x1="0" y1="80"  x2="300" y2="80"  stroke="#3aff6a" stroke-width="0.6" opacity="0.12"/>
  <line x1="0" y1="92"  x2="300" y2="92"  stroke="#3aff6a" stroke-width="0.6" opacity="0.12"/>
  <line x1="0" y1="104" x2="300" y2="104" stroke="#3aff6a" stroke-width="0.6" opacity="0.12"/>
  <line x1="0" y1="116" x2="300" y2="116" stroke="#3aff6a" stroke-width="0.6" opacity="0.12"/>
  <line x1="0" y1="128" x2="300" y2="128" stroke="#3aff6a" stroke-width="0.6" opacity="0.12"/>
  <line x1="0" y1="140" x2="300" y2="140" stroke="#3aff6a" stroke-width="0.6" opacity="0.12"/>
  <line x1="0" y1="152" x2="300" y2="152" stroke="#3aff6a" stroke-width="0.6" opacity="0.12"/>
  <line x1="0" y1="164" x2="300" y2="164" stroke="#3aff6a" stroke-width="0.6" opacity="0.12"/>
  <line x1="0" y1="176" x2="300" y2="176" stroke="#3aff6a" stroke-width="0.6" opacity="0.12"/>
  <line x1="0" y1="188" x2="300" y2="188" stroke="#3aff6a" stroke-width="0.6" opacity="0.12"/>
  <line x1="0" y1="200" x2="300" y2="200" stroke="#3aff6a" stroke-width="0.6" opacity="0.12"/>
  <line x1="0" y1="212" x2="300" y2="212" stroke="#3aff6a" stroke-width="0.6" opacity="0.12"/>
  <line x1="0" y1="224" x2="300" y2="224" stroke="#3aff6a" stroke-width="0.6" opacity="0.12"/>
  <line x1="0" y1="236" x2="300" y2="236" stroke="#3aff6a" stroke-width="0.6" opacity="0.12"/>
  <line x1="0" y1="248" x2="300" y2="248" stroke="#3aff6a" stroke-width="0.6" opacity="0.12"/>
  <line x1="0" y1="260" x2="300" y2="260" stroke="#3aff6a" stroke-width="0.6" opacity="0.12"/>
  <line x1="0" y1="272" x2="300" y2="272" stroke="#3aff6a" stroke-width="0.6" opacity="0.12"/>
  <line x1="0" y1="284" x2="300" y2="284" stroke="#3aff6a" stroke-width="0.6" opacity="0.12"/>

  <path d="M 30 150 Q 90 72 150 72 Q 210 72 270 150 Q 210 228 150 228 Q 90 228 30 150 Z"
        fill="none" stroke="#3aff6a" stroke-width="2.2"/>

  <circle cx="150" cy="150" r="44" fill="none" stroke="#3aff6a" stroke-width="2"/>
  <circle cx="150" cy="150" r="22" fill="#3aff6a"/>
  <circle cx="150" cy="150" r="10" fill="#080f09"/>
  <circle cx="143" cy="143" r="5" fill="#3aff6a" opacity="0.5"/>

  <text x="150" y="272"
        text-anchor="middle"
        font-family="'Courier New', monospace"
        font-size="18"
        font-weight="bold"
        fill="#3aff6a"
        letter-spacing="6">PEEK</text>
</svg>
